<svg width="691" height="436" viewBox="0 0 691 436" fill="none" xmlns="http://www.w3.org/2000/svg">
<path d="M578.652 86.4579V385.778C578.652 388.828 577.481 391.753 575.395 393.91C573.31 396.066 570.481 397.278 567.532 397.278H123.468C122.43 397.279 121.397 397.128 120.4 396.828C118.078 396.142 116.036 394.692 114.583 392.698C113.13 390.704 112.346 388.275 112.348 385.778V252.203C112.348 251.522 112.348 250.847 112.348 250.173V122.781C112.608 122.781 112.861 122.781 113.121 122.819C123.075 105.272 136.382 89.1502 152.382 74.9581H567.532C570.481 74.9581 573.31 76.1697 575.395 78.3263C577.481 80.483 578.652 83.408 578.652 86.4579Z" fill="white"/>
<path d="M502.558 113.83H441.026C435.028 113.83 430.166 118.859 430.166 125.061C430.166 131.264 435.028 136.293 441.026 136.293H502.558C508.556 136.293 513.418 131.264 513.418 125.061C513.418 118.859 508.556 113.83 502.558 113.83Z" fill="#3F3D56"/>
<path opacity="0.1" d="M500.757 117.584H442.82C438.827 117.584 435.59 120.93 435.59 125.058C435.59 129.186 438.827 132.532 442.82 132.532H500.757C504.751 132.532 507.988 129.186 507.988 125.058C507.988 120.93 504.751 117.584 500.757 117.584Z" fill="white"/>
<path d="M499.743 118.403H486.466C482.914 118.403 480.034 121.381 480.034 125.055V125.061C480.034 128.735 482.914 131.714 486.466 131.714H499.743C503.295 131.714 506.176 128.735 506.176 125.061V125.055C506.176 121.381 503.295 118.403 499.743 118.403Z" fill="#2D9965"/>
<path d="M492.905 129.221C495.127 129.221 496.928 127.359 496.928 125.061C496.928 122.764 495.127 120.901 492.905 120.901C490.683 120.901 488.882 122.764 488.882 125.061C488.882 127.359 490.683 129.221 492.905 129.221Z" fill="white"/>
<path d="M502.558 261.904H441.026C435.028 261.904 430.166 266.932 430.166 273.135C430.166 279.338 435.028 284.366 441.026 284.366H502.558C508.556 284.366 513.418 279.338 513.418 273.135C513.418 266.932 508.556 261.904 502.558 261.904Z" fill="#3F3D56"/>
<path opacity="0.1" d="M500.757 265.658H442.82C438.827 265.658 435.59 269.004 435.59 273.132C435.59 277.259 438.827 280.606 442.82 280.606H500.757C504.751 280.606 507.988 277.259 507.988 273.132C507.988 269.004 504.751 265.658 500.757 265.658Z" fill="black"/>
<path d="M499.743 266.476H486.466C482.914 266.476 480.034 269.454 480.034 273.129V273.135C480.034 276.809 482.914 279.787 486.466 279.787H499.743C503.295 279.787 506.176 276.809 506.176 273.135V273.129C506.176 269.454 503.295 266.476 499.743 266.476Z" fill="#5158DB"/>
<path d="M492.905 277.295C495.127 277.295 496.928 275.432 496.928 273.135C496.928 270.837 495.127 268.975 492.905 268.975C490.683 268.975 488.882 270.837 488.882 273.135C488.882 275.432 490.683 277.295 492.905 277.295Z" fill="white"/>
<path d="M502.558 335.937H441.026C435.028 335.937 430.166 340.966 430.166 347.168C430.166 353.371 435.028 358.4 441.026 358.4H502.558C508.556 358.4 513.418 353.371 513.418 347.168C513.418 340.966 508.556 335.937 502.558 335.937Z" fill="#3F3D56"/>
<path opacity="0.1" d="M500.757 339.698H442.82C438.827 339.698 435.59 343.044 435.59 347.172C435.59 351.299 438.827 354.646 442.82 354.646H500.757C504.751 354.646 507.988 351.299 507.988 347.172C507.988 343.044 504.751 339.698 500.757 339.698Z" fill="black"/>
<path d="M499.743 340.516H486.466C482.914 340.516 480.034 343.494 480.034 347.168V347.175C480.034 350.849 482.914 353.827 486.466 353.827H499.743C503.295 353.827 506.176 350.849 506.176 347.175V347.168C506.176 343.494 503.295 340.516 499.743 340.516Z" fill="#2D9965"/>
<path d="M492.905 351.329C495.127 351.329 496.928 349.466 496.928 347.168C496.928 344.871 495.127 343.008 492.905 343.008C490.683 343.008 488.882 344.871 488.882 347.168C488.882 349.466 490.683 351.329 492.905 351.329Z" fill="white"/>
<path d="M219.815 99.688H184.015C180.462 99.688 177.582 102.666 177.582 106.341V106.347C177.582 110.021 180.462 112.999 184.015 112.999H219.815C223.368 112.999 226.248 110.021 226.248 106.347V106.341C226.248 102.666 223.368 99.688 219.815 99.688Z" fill="#2D9965"/>
<path d="M306.287 118.403H184.015C180.462 118.403 177.582 121.381 177.582 125.055V125.061C177.582 128.735 180.462 131.714 184.015 131.714H306.287C309.84 131.714 312.72 128.735 312.72 125.061V125.055C312.72 121.381 309.84 118.403 306.287 118.403Z" fill="#2D9965"/>
<path d="M306.287 137.123H184.015C180.462 137.123 177.582 140.102 177.582 143.776V143.782C177.582 147.456 180.462 150.435 184.015 150.435H306.287C309.84 150.435 312.72 147.456 312.72 143.782V143.776C312.72 140.102 309.84 137.123 306.287 137.123Z" fill="#2D9965"/>
<g opacity="0.5">
<path opacity="0.5" d="M219.815 173.722H184.015C180.462 173.722 177.582 176.7 177.582 180.374V180.38C177.582 184.054 180.462 187.033 184.015 187.033H219.815C223.368 187.033 226.248 184.054 226.248 180.38V180.374C226.248 176.7 223.368 173.722 219.815 173.722Z" fill="#62B85E"/>
<path opacity="0.5" d="M272.021 192.442H184.015C180.462 192.442 177.582 195.421 177.582 199.095V199.101C177.582 202.775 180.462 205.754 184.015 205.754H272.021C275.574 205.754 278.454 202.775 278.454 199.101V199.095C278.454 195.421 275.574 192.442 272.021 192.442Z" fill="#62B85E"/>
<path opacity="0.5" d="M306.287 211.157H184.015C180.462 211.157 177.582 214.135 177.582 217.809V217.816C177.582 221.49 180.462 224.468 184.015 224.468H306.287C309.84 224.468 312.72 221.49 312.72 217.816V217.809C312.72 214.135 309.84 211.157 306.287 211.157Z" fill="#62B85E"/>
</g>
<path d="M219.815 247.761H184.015C180.462 247.761 177.582 250.74 177.582 254.414V254.42C177.582 258.094 180.462 261.073 184.015 261.073H219.815C223.368 261.073 226.248 258.094 226.248 254.42V254.414C226.248 250.74 223.368 247.761 219.815 247.761Z" fill="#2D9965"/>
<path d="M306.287 266.476H184.015C180.462 266.476 177.582 269.454 177.582 273.129V273.135C177.582 276.809 180.462 279.787 184.015 279.787H306.287C309.84 279.787 312.72 276.809 312.72 273.135V273.129C312.72 269.454 309.84 266.476 306.287 266.476Z" fill="#2D9965"/>
<path d="M255.108 285.197H184.015C180.462 285.197 177.582 288.175 177.582 291.849V291.856C177.582 295.53 180.462 298.508 184.015 298.508H255.108C258.661 298.508 261.541 295.53 261.541 291.856V291.849C261.541 288.175 258.661 285.197 255.108 285.197Z" fill="#2D9965"/>
<path d="M219.815 321.795H184.015C180.462 321.795 177.582 324.774 177.582 328.448V328.454C177.582 332.128 180.462 335.106 184.015 335.106H219.815C223.368 335.106 226.248 332.128 226.248 328.454V328.448C226.248 324.774 223.368 321.795 219.815 321.795Z" fill="#2D9965"/>
<path d="M306.287 340.516H184.015C180.462 340.516 177.582 343.494 177.582 347.168V347.175C177.582 350.849 180.462 353.827 184.015 353.827H306.287C309.84 353.827 312.72 350.849 312.72 347.175V347.168C312.72 343.494 309.84 340.516 306.287 340.516Z" fill="#2D9965"/>
<path d="M279.873 359.23H184.015C180.462 359.23 177.582 362.209 177.582 365.883V365.889C177.582 369.563 180.462 372.542 184.015 372.542H279.873C283.426 372.542 286.306 369.563 286.306 365.889V365.883C286.306 362.209 283.426 359.23 279.873 359.23Z" fill="#2D9965"/>
<path opacity="0.7" d="M157.045 162.403H550.867" stroke="#3F3D56" stroke-miterlimit="10" stroke-linecap="round"/>
<path opacity="0.7" d="M157.045 237.673H550.867" stroke="#3F3D56" stroke-miterlimit="10" stroke-linecap="round"/>
<path opacity="0.7" d="M157.045 312.944H550.867" stroke="#3F3D56" stroke-miterlimit="10" stroke-linecap="round"/>
<path opacity="0.7" d="M157.045 390.088H550.867" stroke="#3F3D56" stroke-miterlimit="10" stroke-linecap="round"/>
<path opacity="0.1" d="M480.197 436C529.462 436 569.399 433.064 569.399 429.441C569.399 425.819 529.462 422.882 480.197 422.882C430.932 422.882 390.995 425.819 390.995 429.441C390.995 433.064 430.932 436 480.197 436Z" fill="black"/>
<path d="M502.558 187.864H441.026C435.028 187.864 430.166 192.892 430.166 199.095C430.166 205.298 435.028 210.326 441.026 210.326H502.558C508.556 210.326 513.418 205.298 513.418 199.095C513.418 192.892 508.556 187.864 502.558 187.864Z" fill="#3F3D56"/>
<path opacity="0.1" d="M500.757 191.624H442.82C438.827 191.624 435.59 194.97 435.59 199.098C435.59 203.226 438.827 206.572 442.82 206.572H500.757C504.751 206.572 507.988 203.226 507.988 199.098C507.988 194.97 504.751 191.624 500.757 191.624Z" fill="black"/>
<path d="M438.018 412.894C438.966 412.751 439.915 412.551 440.845 412.326C440.723 413.288 440.454 414.224 440.047 415.099C439.123 416.911 437.317 418.004 435.656 419.116C435.427 418.895 435.131 418.762 434.819 418.74C434.506 418.719 434.196 418.809 433.941 418.997C431.941 420.246 430.347 422.008 428.227 423.082C427.484 423.457 426.711 423.757 425.986 424.175C424.227 425.284 422.772 426.838 421.758 428.692C421.154 429.66 420.664 430.934 421.256 431.896C421.483 432.222 421.776 432.492 422.114 432.689C422.975 433.311 424.006 433.628 425.056 433.595C425.66 433.539 426.264 433.302 426.922 433.195C427.75 433.045 428.595 433.12 429.429 433.045C430.638 432.884 431.823 432.567 432.956 432.102L437.106 430.603C438.278 430.211 439.419 429.727 440.519 429.154C441.177 428.785 441.799 428.354 442.47 428.017C443.224 427.671 444.004 427.387 444.801 427.167L447.157 426.455C447.495 426.321 447.859 426.272 448.22 426.312C448.546 426.374 448.824 426.587 449.156 426.674C449.663 426.767 450.185 426.715 450.666 426.524L453.396 425.725C453.973 425.59 454.522 425.353 455.021 425.025C456.271 424.107 456.495 422.283 456.489 420.69C456.483 418.277 456.219 415.872 455.704 413.519C455.354 413.666 455.048 413.905 454.816 414.212C454.537 413.806 454.236 413.416 453.916 413.044C452.658 411.531 451.729 409.757 451.192 407.841C452.178 407.083 453 406.122 453.608 405.017C452.164 399.327 450.684 393.549 447.749 388.527C446.788 386.89 445.689 385.353 444.729 383.742C441.872 379.057 441.286 373.123 438.018 368.75C437.707 368.307 437.54 367.773 437.54 367.226C437.54 366.679 437.707 366.145 438.018 365.702C438.392 365.19 438.996 364.709 438.882 364.072C438.797 363.616 438.338 363.197 438.513 362.772C438.598 362.566 438.803 362.454 438.96 362.304C439.516 361.767 439.443 360.861 439.498 360.074C439.619 358.087 440.76 356.326 441.859 354.727C442.082 354.344 442.378 354.013 442.729 353.752C443.025 353.565 443.376 353.477 443.672 353.29C444.71 352.609 444.638 351.029 445.133 349.854C445.786 348.305 447.429 347.525 448.504 346.269C449.875 344.67 450.225 342.446 451.669 341.053C451.817 340.906 451.976 340.773 452.146 340.653C451.52 343.023 451.233 345.475 451.294 347.931C451.155 356.382 453.185 365.127 452.237 373.541C451.488 380.2 455.42 386.84 460.995 390.169C463.178 391.373 465.46 392.374 467.814 393.161C471.306 394.455 474.785 395.785 478.209 397.272C480.626 398.321 483.009 399.448 485.361 400.651C488.263 402.117 491.086 403.746 493.817 405.53C497.176 407.76 500.54 410.021 502.926 413.35C504.386 413.273 505.789 412.74 506.949 411.82C507.867 412.569 508.978 413.138 509.842 413.969C511.035 415.254 511.833 416.875 512.137 418.629H511.775C511.817 419.459 511.853 420.29 511.896 421.127C511.927 421.34 511.896 421.558 511.805 421.752C511.718 421.876 511.607 421.98 511.479 422.058L509.619 423.363C508.266 424.307 506.774 425.5 506.701 427.192C506.663 427.685 506.808 428.174 507.106 428.56C507.561 428.998 508.142 429.27 508.761 429.335C511.998 430.041 515.314 430.728 518.594 430.272C520.153 430.053 521.765 429.522 522.78 428.273C523.71 427.136 523.988 425.593 524.242 424.125C524.647 421.627 524.985 419.072 525.251 416.536C525.332 414.812 525.67 413.112 526.253 411.495C526.298 411.354 526.39 411.235 526.513 411.158C526.652 411.095 526.815 411.158 526.96 411.095C527.105 411.033 527.202 410.802 527.25 410.614C527.848 408.147 528.138 405.612 528.114 403.068C528.142 402.408 528.046 401.748 527.83 401.126C527.574 400.605 527.21 400.149 526.763 399.793C526.315 399.436 525.797 399.187 525.245 399.064C524.144 398.833 523.027 398.695 521.904 398.652C520.967 398.559 520.04 398.383 519.132 398.127C518.764 397.984 518.369 397.93 517.978 397.971C517.784 397.999 517.606 398.098 517.477 398.251C517.348 398.403 517.277 398.599 517.278 398.802C517.299 398.946 517.348 399.084 517.423 399.208L516.48 399.014C515.719 398.871 514.668 398.527 513.527 398.24C513.527 398.04 513.539 397.832 513.563 397.615C513.565 397.392 513.506 397.172 513.393 396.982C513.28 396.792 513.117 396.639 512.923 396.541L496.964 387.721L493.98 386.072C487.445 382.455 480.692 379.113 474.138 375.496C473.703 375.634 473.341 375.115 473.214 374.653C473.087 374.191 472.997 373.641 472.58 373.435C472.375 373.335 472.103 373.341 471.976 373.16C471.868 372.998 471.827 372.798 471.861 372.604C472.073 369.312 474.35 366.277 473.897 363.016C473.703 361.623 473.009 360.249 473.293 358.881C473.504 357.937 474.156 357.169 474.501 356.27C475.286 354.258 474.501 351.841 475.358 349.873C475.93 348.58 476.319 347.208 476.512 345.8C476.917 342.995 477.731 340.27 478.928 337.717C479.507 336.43 480.264 335.237 481.175 334.176C481.652 333.639 482.19 333.158 482.649 332.602C484.038 330.884 484.552 328.598 484.944 326.355C485.657 322.351 486.152 318.197 485.258 314.224C484.956 312.875 484.497 311.532 484.515 310.145C484.515 308.484 485.162 306.579 484.383 305.248C485.185 304.582 485.721 303.632 485.887 302.581C485.898 302.203 485.969 301.829 486.098 301.475C486.363 301.09 486.708 300.77 487.107 300.538C487.73 300.047 488.207 299.383 488.482 298.624C488.758 297.865 488.821 297.041 488.665 296.247C489.493 296.634 490.362 295.766 490.755 294.91C491.148 294.054 491.444 293.036 492.283 292.649C492.851 292.399 493.491 292.549 494.095 292.387C495.056 292.13 495.642 291.137 496.318 290.406C497.695 288.87 499.646 288.076 501.452 287.133C506.804 284.316 511.165 279.862 515.435 275.477C517.662 273.339 519.685 270.983 521.476 268.444C521.953 267.713 522.388 266.957 522.798 266.182L522.907 266.126L522.943 266.264C523.01 266.539 523.088 266.813 523.167 267.082C523.36 267.707 523.577 268.375 523.771 269.012C524.423 270.886 525.13 272.885 526.459 274.303C526.866 274.735 527.33 275.107 527.836 275.409C528.934 276.019 530.14 276.392 531.381 276.508C531.853 276.57 532.33 276.608 532.807 276.633C533.284 276.658 533.761 276.677 534.232 276.689L544.005 276.958C540.647 271.923 540.381 265.377 540.605 259.249C541.167 243.508 544.132 227.623 541.378 212.131C541.046 210.257 540.605 208.384 539.499 206.878C538.05 204.91 535.67 203.961 533.351 203.405C531.031 202.849 528.621 202.581 526.453 201.575C524.641 200.719 522.973 199.345 521.016 198.895C519.575 198.645 518.101 198.671 516.667 198.97C514.904 199.241 513.15 199.561 511.406 199.932L510.984 200.026H511.002L510.712 200.094H510.633L510.374 200.157H510.277L510.035 200.226L509.927 200.257L509.703 200.332L509.576 200.375L509.371 200.444L509.238 200.5L509.045 200.575L508.9 200.638L508.725 200.719L508.58 200.794L508.417 200.875L508.272 200.963L508.121 201.05L507.976 201.15L507.837 201.244L507.692 201.35L507.571 201.45L507.432 201.575L507.317 201.681C507.27 201.726 507.226 201.774 507.184 201.825L507.082 201.931C507.034 201.986 506.99 202.045 506.949 202.106C506.949 202.137 506.894 202.168 506.87 202.206C506.846 202.243 506.762 202.368 506.707 202.462V202.499C506.571 202.734 506.46 202.983 506.375 203.243C506.333 203.374 506.29 203.505 506.26 203.636C506.198 203.903 506.153 204.175 506.127 204.448C506.127 204.586 506.127 204.729 506.097 204.867C506.097 205.142 506.097 205.423 506.097 205.698C506.121 206.167 506.172 206.634 506.248 207.097C504.106 208.406 502.32 210.256 501.056 212.473C499.792 214.689 499.093 217.202 499.023 219.774C498.953 222.346 499.515 224.895 500.656 227.182C501.797 229.469 503.48 231.419 505.547 232.851C505.577 233.098 505.593 233.346 505.596 233.594V233.757C505.562 234.64 505.473 235.521 505.33 236.393C502.943 235.913 500.514 235.689 498.082 235.724C496.632 235.724 495.17 235.862 493.709 235.981C492.142 234.026 490.682 231.982 489.336 229.859L486.11 224.968C485.002 223.37 483.994 221.701 483.09 219.971C482.299 218.384 481.683 216.698 480.801 215.161C478.989 211.994 476.029 209.302 475.66 205.635L474.809 205.816C474.344 205.029 473.758 204.198 473.54 203.742C472.374 201.14 471.475 198.418 470.859 195.622C470.563 194.173 470.339 192.661 469.572 191.412C469.049 190.631 468.416 189.936 467.693 189.35C466.528 188.216 465.162 187.325 463.671 186.727C463.005 186.477 462.296 186.37 461.589 186.413C460.882 186.455 460.19 186.647 459.557 186.977C459.36 186.882 459.159 186.799 458.953 186.727C458.205 186.433 457.4 186.329 456.605 186.425C455.81 186.52 455.049 186.812 454.387 187.277C453.118 188.282 452.575 190.006 452.382 191.649C452.048 193.922 452.424 196.247 453.457 198.283C454.665 200.519 456.827 202.031 458.615 203.805C459.859 205.051 460.949 206.453 461.859 207.977C462.139 211.352 462.056 214.748 461.611 218.103C461.381 219.54 461.007 220.951 460.898 222.401C460.457 227.635 463.091 232.87 462.149 238.017C461.993 238.791 462.074 239.595 462.38 240.32C462.686 241.044 463.203 241.651 463.858 242.058C465.211 242.814 466.793 242.914 468.279 243.308C471.197 244.082 473.716 246.012 476.663 246.731C478.022 247.068 479.436 247.131 480.789 247.505L481 247.574C479.958 248.794 479.214 250.255 478.832 251.834C478.228 254.458 478.795 257.262 478.191 259.886C477.696 262.047 476.452 263.934 475.226 265.764C472.866 269.295 470.502 272.835 468.134 276.383C466.552 278.871 464.806 281.244 462.91 283.485C459.654 287.164 454.037 290.082 452.382 294.504C452.345 294.398 452.297 294.292 452.261 294.186C449.917 295.966 449.041 299.283 447.175 301.588C446.263 302.706 445.139 303.612 444.155 304.648C442.935 305.987 441.818 307.422 440.815 308.94C438.036 312.925 435.239 316.929 433.252 321.395C432.213 323.719 431.41 326.136 430.582 328.541C427.333 338.017 422.029 347.006 419.825 356.807C419.287 359.199 417.88 361.361 417.668 363.809C417.433 366.42 418.587 368.931 419.782 371.236C421.595 374.759 423.612 378.182 425.219 381.805C426.167 383.917 426.988 386.097 428.045 388.158C429.199 390.407 430.613 392.493 431.821 394.711C434.762 400.401 436.453 406.691 438.018 412.894ZM477.98 233.901L477.69 233.751C476.607 233.266 475.615 232.587 474.761 231.745C472.157 228.872 471.04 224.543 470.224 220.677C470.128 220.214 470.043 219.758 469.965 219.296C473.124 223.937 476.107 228.735 477.98 233.913V233.901Z" fill="url(#paint0_linear)"/>
<path d="M466.111 196.39C465.815 194.947 465.598 193.448 464.83 192.211C464.305 191.435 463.67 190.744 462.946 190.162C461.774 189.036 460.405 188.151 458.911 187.558C458.163 187.267 457.358 187.165 456.564 187.259C455.77 187.354 455.01 187.642 454.345 188.101C453.07 189.101 452.533 190.812 452.333 192.474C451.999 194.733 452.376 197.043 453.408 199.064C454.647 201.287 456.785 202.774 458.579 204.548C459.882 205.848 461.015 207.318 461.949 208.921C462.375 209.752 462.89 210.531 463.483 211.244C463.784 211.594 464.158 211.866 464.577 212.041C464.996 212.215 465.449 212.287 465.9 212.25C466.653 212.044 467.336 211.627 467.875 211.044C468.612 210.376 470.593 209.171 470.653 208.127C470.702 207.272 469.155 205.335 468.775 204.529C467.613 201.921 466.72 199.193 466.111 196.39Z" fill="#FBBEBE"/>
<path opacity="0.1" d="M466.111 196.39C465.815 194.947 465.598 193.448 464.83 192.211C464.305 191.435 463.67 190.744 462.946 190.162C461.774 189.036 460.405 188.151 458.911 187.558C458.163 187.267 457.358 187.165 456.564 187.259C455.77 187.354 455.01 187.642 454.345 188.101C453.07 189.101 452.533 190.812 452.333 192.474C451.999 194.733 452.376 197.043 453.408 199.064C454.647 201.287 456.785 202.774 458.579 204.548C459.882 205.848 461.015 207.318 461.949 208.921C462.375 209.752 462.89 210.531 463.483 211.244C463.784 211.594 464.158 211.866 464.577 212.041C464.996 212.215 465.449 212.287 465.9 212.25C466.653 212.044 467.336 211.627 467.875 211.044C468.612 210.376 470.593 209.171 470.653 208.127C470.702 207.272 469.155 205.335 468.775 204.529C467.613 201.921 466.72 199.193 466.111 196.39Z" fill="black"/>
<path d="M507.891 237.511C504.705 236.628 501.416 236.207 498.118 236.262C492.615 236.343 486.95 237.723 481.707 235.974C480.358 235.499 479.046 234.921 477.781 234.244C476.696 233.764 475.702 233.089 474.845 232.251C472.236 229.397 471.112 225.093 470.303 221.258C469.588 217.398 469.174 213.486 469.065 209.558C467.706 210.214 466.268 210.857 464.776 210.726C463.284 210.595 461.756 209.408 461.756 207.859C461.979 211.494 462.143 215.173 461.557 218.759C461.327 220.183 460.953 221.589 460.85 223.025C460.403 228.229 463.042 233.426 462.1 238.554C461.942 239.324 462.022 240.125 462.329 240.845C462.636 241.564 463.154 242.166 463.81 242.564C465.163 243.32 466.751 243.414 468.237 243.814C471.155 244.582 473.673 246.5 476.633 247.218C477.992 247.549 479.411 247.612 480.764 247.986C482.691 248.517 484.449 249.66 486.418 250.016C487.892 250.291 489.438 250.104 490.906 250.235C492.205 250.348 493.473 250.697 494.778 250.735C497.967 250.816 500.975 248.955 503.089 246.481C505.203 244.007 506.55 240.491 507.891 237.511Z" fill="#F86D70"/>
<path opacity="0.1" d="M507.891 237.511C504.705 236.628 501.416 236.207 498.118 236.262C492.615 236.343 486.95 237.723 481.707 235.974C480.358 235.499 479.046 234.921 477.781 234.244C476.696 233.764 475.702 233.089 474.845 232.251C472.236 229.397 471.112 225.093 470.303 221.258C469.588 217.398 469.174 213.486 469.065 209.558C467.706 210.214 466.268 210.857 464.776 210.726C463.284 210.595 461.756 209.408 461.756 207.859C461.979 211.494 462.143 215.173 461.557 218.759C461.327 220.183 460.953 221.589 460.85 223.025C460.403 228.229 463.042 233.426 462.1 238.554C461.942 239.324 462.022 240.125 462.329 240.845C462.636 241.564 463.154 242.166 463.81 242.564C465.163 243.32 466.751 243.414 468.237 243.814C471.155 244.582 473.673 246.5 476.633 247.218C477.992 247.549 479.411 247.612 480.764 247.986C482.691 248.517 484.449 249.66 486.418 250.016C487.892 250.291 489.438 250.104 490.906 250.235C492.205 250.348 493.473 250.697 494.778 250.735C497.967 250.816 500.975 248.955 503.089 246.481C505.203 244.007 506.55 240.491 507.891 237.511Z" fill="black"/>
<path d="M516.625 398.321C517.611 398.447 518.566 398.756 519.446 399.233C520.593 400.077 521.452 401.275 521.898 402.656C523.215 406.017 523.487 409.715 523.547 413.344C523.596 416.274 523.499 419.272 522.484 422.008C522.207 422.871 521.728 423.65 521.089 424.275C520.523 424.734 519.868 425.062 519.168 425.237C517.652 425.668 515.9 425.662 514.662 424.663C513.285 423.551 512.941 421.583 512.651 419.803C512.258 417.404 511.702 414.849 509.975 413.194C508.694 411.945 506.858 411.32 505.928 409.808C504.817 407.991 505.403 405.617 506.109 403.593C506.713 401.838 507.625 398.284 509.401 397.384C511.177 396.485 514.783 397.977 516.625 398.321Z" fill="#FBBEBE"/>
<path d="M451.204 406.941C451.736 408.902 452.681 410.717 453.97 412.257C454.755 413.194 455.74 414.331 455.329 415.493C455.156 415.888 454.903 416.239 454.586 416.523C448.751 422.42 440.591 425.269 432.497 426.343C432.368 426.378 432.233 426.378 432.105 426.343C431.869 426.237 431.809 425.924 431.784 425.656C431.651 424.785 431.651 423.897 431.784 423.026C432.177 420.983 433.911 419.54 435.608 418.41C437.305 417.279 439.159 416.192 440.102 414.35C441.28 412.063 440.784 409.084 442.186 406.941C443.321 405.198 445.435 404.443 447.447 404.13C448.141 404.018 449.621 403.231 450.213 403.593C450.805 403.955 450.998 406.223 451.204 406.941Z" fill="#FBBEBE"/>
<path d="M517.422 398.109C517.422 397.907 517.493 397.711 517.622 397.56C517.751 397.408 517.929 397.31 518.123 397.284C518.514 397.244 518.908 397.296 519.277 397.434C520.184 397.695 521.112 397.873 522.049 397.965C523.174 398.006 524.293 398.141 525.396 398.371C525.947 398.491 526.466 398.736 526.914 399.089C527.363 399.443 527.729 399.895 527.987 400.414C528.202 401.034 528.299 401.692 528.271 402.35C528.296 404.877 528.005 407.396 527.407 409.846C527.359 410.033 527.286 410.252 527.111 410.321C526.936 410.389 526.809 410.321 526.67 410.389C526.607 410.425 526.552 410.473 526.508 410.531C526.463 410.589 526.43 410.656 526.41 410.727C525.826 412.328 525.485 414.014 525.402 415.724C525.136 418.222 524.798 420.759 524.393 423.257C524.157 424.719 523.861 426.255 522.931 427.38C521.91 428.629 520.298 429.148 518.739 429.366C515.453 429.816 512.137 429.135 508.894 428.436C508.274 428.372 507.692 428.102 507.233 427.667C506.935 427.283 506.79 426.796 506.828 426.305C506.9 424.625 508.398 423.438 509.745 422.501L511.612 421.208C511.742 421.134 511.853 421.029 511.938 420.902C512.03 420.709 512.062 420.49 512.029 420.278L511.908 417.779C513.144 417.802 514.351 418.17 515.4 418.846C516.45 419.521 517.303 420.478 517.869 421.614C518.123 422.145 518.371 422.764 518.902 422.97C519.248 423.052 519.611 422.991 519.914 422.801C520.217 422.611 520.437 422.306 520.527 421.952C520.687 421.236 520.668 420.49 520.473 419.784C519.38 413.744 519.639 407.535 518.975 401.432C518.932 400.744 518.725 400.079 518.371 399.495C518.087 399.077 517.489 398.671 517.422 398.109Z" fill="#F86D70"/>
<path d="M443.835 205.754H457.111C460.664 205.754 463.544 202.775 463.544 199.101V199.095C463.544 195.421 460.664 192.442 457.111 192.442H443.835C440.282 192.442 437.402 195.421 437.402 199.095V199.101C437.402 202.775 440.282 205.754 443.835 205.754Z" fill="#2D9965"/>
<path d="M450.672 203.255C452.894 203.255 454.695 201.393 454.695 199.095C454.695 196.797 452.894 194.935 450.672 194.935C448.45 194.935 446.649 196.797 446.649 199.095C446.649 201.393 448.45 203.255 450.672 203.255Z" fill="white"/>
<path d="M436.17 421.527C435.898 421.995 435.469 422.358 435.215 422.839C435.071 423.067 435.013 423.342 435.051 423.613C435.088 423.883 435.22 424.129 435.421 424.307C435.692 424.429 435.995 424.46 436.284 424.394C442.118 423.641 447.594 421.075 451.989 417.036C452.72 416.399 453.368 415.666 453.916 414.856C454.429 414.05 454.864 413.063 455.728 412.725C456.253 415.071 456.525 417.47 456.537 419.878C456.537 421.464 456.32 423.27 455.069 424.188C454.567 424.511 454.016 424.743 453.439 424.875L450.708 425.675C450.225 425.863 449.702 425.915 449.192 425.824C448.872 425.737 448.588 425.525 448.256 425.462C447.896 425.423 447.531 425.472 447.193 425.606L444.831 426.318C444.033 426.532 443.253 426.814 442.5 427.161C441.823 427.492 441.201 427.917 440.543 428.286C439.441 428.857 438.298 429.337 437.124 429.722L432.974 431.215C431.838 431.675 430.651 431.989 429.441 432.152C428.607 432.227 427.756 432.152 426.928 432.296C426.324 432.408 425.72 432.646 425.056 432.696C424.007 432.729 422.976 432.414 422.114 431.796C421.778 431.599 421.485 431.331 421.256 431.009C420.652 430.053 421.178 428.792 421.758 427.823C422.779 425.984 424.234 424.441 425.986 423.338C426.711 422.926 427.49 422.626 428.233 422.251C430.353 421.189 431.954 419.416 433.953 418.204C435.843 417.061 437.058 420.015 436.17 421.527Z" fill="#F86D70"/>
<path d="M494.506 248.574C496.701 250.131 499.215 251.142 501.851 251.528C503.229 251.705 504.618 251.782 506.007 251.759C511.801 251.753 517.585 251.254 523.3 250.266C521.029 247.674 518.727 244.901 517.863 241.521C517.437 239.73 517.347 237.87 517.598 236.043C517.946 233.709 518.488 231.41 519.216 229.172C516.779 229.304 514.335 229.239 511.908 228.978C510.525 228.828 507.13 227.529 505.928 228.516C504.726 229.503 505.65 232.682 505.668 234.175C505.671 234.229 505.671 234.284 505.668 234.338C505.61 236.612 505.136 238.854 504.273 240.947C502.545 244.982 498.801 248.305 494.506 248.574Z" fill="#FBBEBE"/>
<path opacity="0.1" d="M505.674 234.144C507.417 235.322 509.384 236.099 511.442 236.422C513.5 236.745 515.601 236.608 517.604 236.018C517.952 233.684 518.493 231.385 519.222 229.147C516.785 229.279 514.341 229.214 511.914 228.953C510.531 228.803 507.136 227.504 505.934 228.491C504.732 229.478 505.656 232.651 505.674 234.144Z" fill="black"/>
<path d="M513.647 235.899C521.69 235.899 528.21 229.157 528.21 220.839C528.21 212.521 521.69 205.779 513.647 205.779C505.605 205.779 499.084 212.521 499.084 220.839C499.084 229.157 505.605 235.899 513.647 235.899Z" fill="#FBBEBE"/>
<path d="M451.862 297.04C451.857 298.255 452.157 299.451 452.733 300.509C453.309 301.568 454.141 302.454 455.148 303.081C456.269 303.69 457.469 304.127 458.712 304.38C465.356 306.041 472.193 307.378 479.037 306.972C480.52 306.959 481.987 306.641 483.35 306.035C484.028 305.724 484.624 305.249 485.088 304.65C485.551 304.051 485.869 303.346 486.013 302.593C486.02 302.219 486.09 301.85 486.219 301.5C486.484 301.117 486.829 300.799 487.228 300.569C487.85 300.084 488.328 299.427 488.605 298.673C488.882 297.919 488.946 297.1 488.792 296.309C489.619 296.697 490.489 295.828 490.882 294.979C491.274 294.129 491.576 293.105 492.41 292.736C492.978 292.487 493.618 292.636 494.222 292.474C495.182 292.218 495.768 291.225 496.445 290.506C497.822 288.982 499.785 288.195 501.585 287.252C506.949 284.46 511.316 280.031 515.598 275.677C517.825 273.556 519.847 271.217 521.639 268.694C522.118 267.968 522.562 267.217 522.967 266.445C524.258 263.88 525.378 261.228 526.32 258.506C526.863 257.044 527.413 255.507 527.19 253.958C527.19 253.821 527.141 253.683 527.111 253.54C526.832 252.545 526.384 251.611 525.788 250.779C524.308 248.53 522.369 246.406 519.82 245.706C517.271 245.007 514.735 245.85 512.143 246.418C511.286 246.617 510.416 246.755 509.54 246.831C506.798 247.031 504.104 246.269 501.434 245.513L498.547 244.688C497.103 244.276 496.378 242.471 494.923 242.152C494.268 242.05 493.6 242.086 492.96 242.258C489.994 242.839 486.998 243.595 484.383 245.157C483.798 245.502 483.241 245.895 482.715 246.331C480.817 247.797 479.452 249.88 478.838 252.246C478.234 254.851 478.801 257.637 478.197 260.242C477.702 262.391 476.452 264.265 475.232 266.076L468.116 276.614C466.53 279.083 464.782 281.438 462.886 283.66C459.056 287.964 451.965 291.2 451.862 297.04Z" fill="#F86D70"/>
<path d="M470.852 196.39C470.556 194.947 470.339 193.448 469.572 192.211C469.046 191.435 468.411 190.744 467.687 190.162C466.516 189.036 465.146 188.151 463.652 187.558C462.904 187.267 462.1 187.165 461.306 187.259C460.512 187.354 459.751 187.642 459.086 188.101C457.812 189.101 457.274 190.812 457.075 192.474C456.741 194.733 457.118 197.043 458.15 199.064C459.358 201.287 461.526 202.774 463.32 204.548C464.623 205.848 465.756 207.318 466.691 208.921C467.117 209.752 467.631 210.531 468.225 211.244C468.525 211.594 468.899 211.866 469.319 212.041C469.738 212.215 470.19 212.287 470.641 212.25C471.394 212.044 472.078 211.627 472.616 211.044C473.353 210.376 475.334 209.171 475.395 208.127C475.443 207.272 473.897 205.335 473.516 204.529C472.354 201.921 471.461 199.193 470.852 196.39Z" fill="#FBBEBE"/>
<path d="M419.68 370.818C421.492 374.316 423.509 377.689 425.146 381.312C426.095 383.417 426.916 385.578 427.973 387.627C429.127 389.857 430.546 391.931 431.754 394.13C434.774 399.689 436.484 405.961 438.048 412.138C442.42 411.466 446.627 409.935 450.443 407.628C450.699 407.479 450.947 407.314 451.186 407.135C452.207 406.38 453.06 405.406 453.686 404.28C452.243 398.658 450.763 392.893 447.821 387.902C446.861 386.278 445.761 384.779 444.801 383.148C441.944 378.495 441.352 372.629 438.084 368.275C437.772 367.837 437.604 367.308 437.604 366.764C437.604 366.22 437.772 365.69 438.084 365.252C438.459 364.746 439.063 364.265 438.948 363.634C438.864 363.178 438.404 362.766 438.58 362.341C438.664 362.135 438.87 362.023 439.027 361.873C439.582 361.348 439.51 360.442 439.564 359.668C439.685 357.694 440.827 355.964 441.932 354.352C442.157 353.972 442.452 353.643 442.802 353.384C443.098 353.196 443.448 353.109 443.744 352.921C444.783 352.253 444.71 350.679 445.212 349.511C445.864 347.974 447.507 347.193 448.588 345.95C449.959 344.364 450.304 342.159 451.753 340.772C451.903 340.627 452.062 340.494 452.23 340.372C451.602 342.733 451.315 345.177 451.379 347.624C451.24 356.02 453.269 364.702 452.321 373.041C451.572 379.65 455.51 386.247 461.091 389.557C463.28 390.752 465.566 391.747 467.923 392.531C471.414 393.811 474.905 395.129 478.33 396.61C480.746 397.646 483.162 398.771 485.494 399.964C488.396 401.419 491.219 403.037 493.95 404.811C497.315 407.022 500.685 409.271 503.071 412.576C505.384 412.513 507.504 411.076 508.966 409.221C510.428 407.366 511.34 405.124 512.192 402.906C512.935 400.988 513.671 399.021 513.726 396.953C513.726 396.731 513.667 396.513 513.554 396.324C513.44 396.135 513.278 395.983 513.086 395.885L497.103 387.14L494.083 385.503C487.542 381.912 480.795 378.588 474.217 375.003C473.776 375.134 473.413 374.616 473.287 374.166C473.16 373.716 473.069 373.154 472.652 372.954C472.441 372.854 472.175 372.854 472.048 372.679C471.945 372.517 471.906 372.32 471.94 372.129C472.151 368.856 474.434 365.845 473.975 362.604C473.782 361.217 473.087 359.855 473.371 358.5C473.583 357.556 474.235 356.794 474.579 355.901C475.358 353.902 474.579 351.528 475.437 349.548C476.009 348.264 476.398 346.901 476.591 345.501C477.002 342.713 477.827 340.008 479.037 337.48C479.615 336.199 480.373 335.012 481.284 333.957C481.767 333.426 482.305 332.945 482.758 332.395C484.153 330.69 484.66 328.416 485.059 326.224C485.772 322.245 486.267 318.103 485.373 314.174C485.071 312.831 484.612 311.501 484.63 310.12C484.63 308.303 485.421 306.173 484.201 304.855C483.687 304.382 483.062 304.054 482.389 303.905C479.548 303.113 476.649 302.559 473.722 302.25L460.397 300.457C458.858 300.352 457.351 299.947 455.957 299.264C454.145 298.233 452.937 296.316 452.212 294.317C449.869 296.084 448.987 299.376 447.12 301.663C446.208 302.781 445.085 303.68 444.1 304.705C442.877 306.032 441.758 307.459 440.754 308.971C437.97 312.925 435.167 316.91 433.174 321.339C432.141 323.644 431.362 326.049 430.504 328.435C427.248 337.849 421.939 346.781 419.734 356.507C419.191 358.887 417.783 361.029 417.572 363.466C417.324 366.045 418.478 368.544 419.68 370.818Z" fill="#1E0000"/>
<path opacity="0.1" d="M489.577 292.674C489.901 293.3 490.069 294 490.066 294.71C489.77 293.186 487.741 292.343 487.614 290.837C487.554 290.144 487.674 290.175 488.091 290.544C488.725 291.087 488.997 292.074 489.577 292.674Z" fill="black"/>
<path opacity="0.1" d="M483.41 297.296C483.835 297.672 484.155 298.16 484.334 298.708C484.672 299.479 484.737 300.348 484.515 301.163C484.219 301.019 484.117 300.644 484.026 300.313C483.889 299.802 483.686 299.313 483.422 298.858C483.181 298.464 482.075 297.527 482.087 297.096C482.069 296.447 483.114 297.065 483.41 297.296Z" fill="black"/>
<path opacity="0.1" d="M482.697 246.331C483.634 247.161 484.664 247.87 485.766 248.442C488.653 249.954 491.848 250.747 494.754 252.19C496.186 252.943 497.578 253.777 498.921 254.689C501.802 256.563 504.678 258.437 507.553 260.342C508.245 260.755 508.884 261.257 509.455 261.835C510.494 262.984 510.488 264.958 511.437 266.207C511.96 266.825 512.603 267.322 513.325 267.666C514.046 268.01 514.828 268.194 515.622 268.206C517.213 268.22 518.793 267.945 520.292 267.394C521.201 267.116 522.092 266.78 522.961 266.389C523.87 265.992 524.73 265.485 525.522 264.877C526.314 264.301 526.989 263.569 527.507 262.724C528.025 261.878 528.377 260.935 528.542 259.948C528.647 258.585 528.472 257.214 528.029 255.926C527.789 255.086 527.482 254.269 527.111 253.483C526.898 253.037 526.652 252.609 526.374 252.203C524.393 249.298 520.902 247.93 517.525 247.249C515.743 246.893 513.931 246.675 512.143 246.362C511.286 246.561 510.416 246.699 509.54 246.775C506.798 246.974 504.104 246.212 501.434 245.457L498.547 244.632C497.103 244.22 496.378 242.414 494.923 242.096C494.268 241.994 493.6 242.03 492.96 242.202C489.994 242.783 486.998 243.539 484.382 245.1C483.79 245.463 483.226 245.875 482.697 246.331Z" fill="black"/>
<path d="M475.66 206.36C476.029 210.001 479.001 212.675 480.813 215.817C481.695 217.347 482.311 219.021 483.102 220.602C484.006 222.331 485.015 224 486.122 225.599L489.354 230.452C491.256 233.307 493.177 236.187 495.605 238.573C499.833 239.316 503.397 242.571 507.414 244.151C510.633 245.4 514.137 245.588 517.513 246.269C520.89 246.949 524.381 248.311 526.362 251.222C527.103 252.373 527.661 253.638 528.017 254.97C528.459 256.257 528.634 257.625 528.53 258.986C528.366 259.974 528.014 260.918 527.496 261.765C526.978 262.612 526.303 263.345 525.51 263.921C523.921 265.06 522.154 265.905 520.286 266.42C518.786 266.968 517.207 267.243 515.616 267.232C514.822 267.219 514.038 267.035 513.316 266.691C512.594 266.346 511.95 265.85 511.425 265.233C510.482 263.984 510.488 261.991 509.449 260.86C508.878 260.282 508.239 259.78 507.547 259.367L498.915 253.746C497.572 252.834 496.18 252 494.748 251.247C491.842 249.779 488.647 248.986 485.76 247.499C482.872 246.012 480.185 243.495 479.617 240.203C477.859 230.09 471.088 221.564 465.302 213.212C465.489 213.175 465.434 212.725 465.501 212.537C466.339 210.577 467.843 209.004 469.729 208.115C471.589 207.072 473.655 206.803 475.66 206.36Z" fill="#F86D70"/>
<path d="M506.17 206.435C506.061 205.338 506.272 204.233 506.774 203.261C507.734 201.612 509.739 201.031 511.563 200.644C513.388 200.257 515.067 199.957 516.831 199.695C518.266 199.396 519.741 199.369 521.186 199.613C523.155 200.063 524.81 201.431 526.622 202.274C528.796 203.28 531.212 203.524 533.532 204.098C535.851 204.673 538.237 205.591 539.693 207.546C540.798 209.027 541.239 210.92 541.571 212.762C544.332 228.147 541.36 243.926 540.798 259.561C540.575 265.645 540.84 272.148 544.205 277.151L534.414 276.883C531.907 276.814 529.213 276.677 527.244 275.077C525.504 273.672 524.683 271.405 523.946 269.262C523.279 267.598 522.855 265.84 522.69 264.046C522.539 260.373 524.556 256.769 523.898 253.152C523.408 250.454 521.482 248.267 519.476 246.5C517.471 244.732 515.188 243.189 513.539 241.034C510.609 237.192 510.047 231.952 510.41 227.073C510.627 224.175 511.135 221.27 510.887 218.372C510.763 216.154 509.99 214.028 508.67 212.275C507.13 210.351 506.315 209.152 506.17 206.435Z" fill="#39374D"/>
<path opacity="0.1" d="M506.774 203.261C507.716 201.637 509.673 201.05 511.467 200.669C510.515 201.015 509.699 201.673 509.141 202.543C508.643 203.519 508.433 204.624 508.537 205.722C508.67 208.44 509.486 209.639 511.044 211.563C512.369 213.313 513.145 215.44 513.267 217.66C513.508 220.558 513.007 223.456 512.79 226.361C512.421 231.233 512.983 236.48 515.919 240.322C517.561 242.477 519.827 244.014 521.856 245.788C523.886 247.562 525.788 249.742 526.277 252.44C526.93 256.051 524.912 259.661 525.069 263.334C525.229 265.126 525.651 266.882 526.32 268.544C527.063 270.692 527.884 272.96 529.618 274.365C531.587 275.964 534.287 276.102 536.794 276.171L543.728 276.358C543.879 276.62 544.042 276.883 544.211 277.139L534.42 276.87C531.913 276.801 529.219 276.664 527.25 275.065C525.51 273.659 524.689 271.392 523.952 269.249C523.285 267.585 522.861 265.827 522.696 264.034C522.545 260.361 524.562 256.756 523.904 253.14C523.414 250.441 521.488 248.255 519.482 246.487C517.477 244.719 515.194 243.177 513.545 241.022C510.615 237.18 510.054 231.939 510.416 227.061C510.633 224.162 511.141 221.258 510.893 218.359C510.769 216.141 509.996 214.015 508.676 212.263C507.118 210.339 506.303 209.139 506.164 206.422C506.06 205.329 506.272 204.229 506.774 203.261Z" fill="black"/>
<path opacity="0.1" d="M433.216 361.816L451.204 407.135C452.225 406.379 453.078 405.406 453.704 404.28C452.261 398.658 450.781 392.893 447.839 387.902C446.879 386.278 445.78 384.779 444.819 383.148C441.962 378.495 441.37 372.629 438.102 368.275C437.79 367.837 437.622 367.308 437.622 366.764C437.622 366.22 437.79 365.69 438.102 365.252C438.477 364.746 439.081 364.265 438.966 363.634C438.882 363.178 438.423 362.766 438.598 362.341C438.682 362.135 438.888 362.023 439.045 361.873C439.6 361.348 439.528 360.442 439.582 359.668C439.703 357.694 440.845 355.964 441.95 354.352C442.175 353.972 442.47 353.643 442.82 353.384C443.116 353.196 443.466 353.109 443.762 352.921C444.801 352.253 444.729 350.679 445.23 349.511C445.882 347.974 447.525 347.193 448.606 345.95C449.978 344.364 450.322 342.159 451.771 340.772L451.898 340.447L450.539 331.702L433.216 361.816Z" fill="black"/>
<path d="M598.159 415.942C609.484 415.942 618.665 414.116 618.665 411.863C618.665 409.611 609.484 407.785 598.159 407.785C586.833 407.785 577.652 409.611 577.652 411.863C577.652 414.116 586.833 415.942 598.159 415.942Z" fill="#4B4B4B"/>
<path d="M598.503 413.356C599.821 413.356 600.889 411.911 600.889 410.127C600.889 408.343 599.821 406.898 598.503 406.898C597.185 406.898 596.117 408.343 596.117 410.127C596.117 411.911 597.185 413.356 598.503 413.356Z" fill="#3F3D56"/>
<path d="M598.503 409.409C599.821 409.409 600.889 407.963 600.889 406.179C600.889 404.396 599.821 402.95 598.503 402.95C597.185 402.95 596.117 404.396 596.117 406.179C596.117 407.963 597.185 409.409 598.503 409.409Z" fill="#3F3D56"/>
<path d="M598.503 405.455C599.821 405.455 600.889 404.009 600.889 402.225C600.889 400.442 599.821 398.996 598.503 398.996C597.185 398.996 596.117 400.442 596.117 402.225C596.117 404.009 597.185 405.455 598.503 405.455Z" fill="#3F3D56"/>
<path d="M598.503 401.507C599.821 401.507 600.889 400.061 600.889 398.277C600.889 396.494 599.821 395.048 598.503 395.048C597.185 395.048 596.117 396.494 596.117 398.277C596.117 400.061 597.185 401.507 598.503 401.507Z" fill="#3F3D56"/>
<path d="M598.503 397.553C599.821 397.553 600.889 396.107 600.889 394.323C600.889 392.54 599.821 391.094 598.503 391.094C597.185 391.094 596.117 392.54 596.117 394.323C596.117 396.107 597.185 397.553 598.503 397.553Z" fill="#3F3D56"/>
<path d="M598.503 393.605C599.821 393.605 600.889 392.159 600.889 390.376C600.889 388.592 599.821 387.146 598.503 387.146C597.185 387.146 596.117 388.592 596.117 390.376C596.117 392.159 597.185 393.605 598.503 393.605Z" fill="#3F3D56"/>
<path d="M598.503 389.657C599.821 389.657 600.889 388.211 600.889 386.428C600.889 384.644 599.821 383.198 598.503 383.198C597.185 383.198 596.117 384.644 596.117 386.428C596.117 388.211 597.185 389.657 598.503 389.657Z" fill="#3F3D56"/>
<path d="M589.563 359.393C589.237 358.963 588.941 358.51 588.676 358.037L594.945 356.969L588.162 357.025C587.513 355.561 587.159 353.975 587.121 352.364C587.084 350.753 587.364 349.151 587.945 347.656L597.047 352.534L588.651 346.156C589.435 344.744 590.491 343.513 591.755 342.542C593.019 341.572 594.464 340.881 595.998 340.514C597.532 340.147 599.123 340.111 600.671 340.409C602.219 340.708 603.691 341.333 604.994 342.246C606.298 343.16 607.405 344.342 608.246 345.718C609.088 347.095 609.645 348.636 609.884 350.245C610.123 351.855 610.038 353.498 609.635 355.072C609.231 356.646 608.518 358.117 607.539 359.393C608.05 360.059 608.488 360.782 608.844 361.548L600.702 365.92L609.387 362.91C609.786 364.131 609.99 365.412 609.991 366.701C609.995 369.356 609.13 371.933 607.539 374.016C608.866 375.76 609.691 377.855 609.92 380.061C610.149 382.268 609.774 384.496 608.836 386.492C607.899 388.488 606.437 390.171 604.618 391.348C602.799 392.526 600.697 393.15 598.551 393.15C596.406 393.15 594.303 392.526 592.484 391.348C590.666 390.171 589.204 388.488 588.266 386.492C587.329 384.496 586.953 382.268 587.183 380.061C587.412 377.855 588.237 375.76 589.563 374.016C587.979 371.931 587.117 369.356 587.117 366.704C587.117 364.053 587.979 361.478 589.563 359.393Z" fill="#2D9965"/>
<path opacity="0.1" d="M609.991 366.701C609.995 369.356 609.13 371.933 607.539 374.016C608.866 375.76 609.69 377.855 609.92 380.061C610.149 382.268 609.774 384.496 608.836 386.492C607.899 388.488 606.437 390.171 604.618 391.348C602.799 392.526 600.697 393.15 598.551 393.15C596.406 393.15 594.303 392.526 592.484 391.348C590.666 390.171 589.204 388.488 588.266 386.492C587.329 384.496 586.953 382.268 587.183 380.061C587.412 377.855 588.237 375.76 589.563 374.016C588.029 372.005 609.991 365.377 609.991 366.701Z" fill="black"/>
<path d="M64.5 425C89.0767 425 109 420.971 109 416C109 411.029 89.0767 407 64.5 407C39.9233 407 20 411.029 20 416C20 420.971 39.9233 425 64.5 425Z" fill="#4B4B4B"/>
<path d="M65 419C67.7614 419 70 415.866 70 412C70 408.134 67.7614 405 65 405C62.2386 405 60 408.134 60 412C60 415.866 62.2386 419 65 419Z" fill="#3F3D56"/>
<path d="M65 411C67.7614 411 70 407.866 70 404C70 400.134 67.7614 397 65 397C62.2386 397 60 400.134 60 404C60 407.866 62.2386 411 65 411Z" fill="#3F3D56"/>
<path d="M65 402C67.7614 402 70 398.866 70 395C70 391.134 67.7614 388 65 388C62.2386 388 60 391.134 60 395C60 398.866 62.2386 402 65 402Z" fill="#3F3D56"/>
<path d="M65 394C67.7614 394 70 390.866 70 387C70 383.134 67.7614 380 65 380C62.2386 380 60 383.134 60 387C60 390.866 62.2386 394 65 394Z" fill="#3F3D56"/>
<path d="M65 385C67.7614 385 70 381.866 70 378C70 374.134 67.7614 371 65 371C62.2386 371 60 374.134 60 378C60 381.866 62.2386 385 65 385Z" fill="#3F3D56"/>
<path d="M65 377C67.7614 377 70 373.866 70 370C70 366.134 67.7614 363 65 363C62.2386 363 60 366.134 60 370C60 373.866 62.2386 377 65 377Z" fill="#3F3D56"/>
<path d="M65 368C67.7614 368 70 364.866 70 361C70 357.134 67.7614 354 65 354C62.2386 354 60 357.134 60 361C60 364.866 62.2386 368 65 368Z" fill="#3F3D56"/>
<path d="M45.3414 302.671C44.6293 301.737 43.9814 300.753 43.4026 299.726L57.0924 297.406L42.2816 297.528C40.8637 294.347 40.0903 290.901 40.0087 287.402C39.9271 283.903 40.5389 280.423 41.8069 277.175L61.6821 287.772L43.3499 273.918C45.0598 270.849 47.367 268.177 50.1272 266.068C52.8873 263.959 56.0408 262.459 59.3905 261.661C62.7401 260.864 66.2137 260.787 69.5937 261.434C72.9737 262.082 76.1874 263.44 79.0335 265.425C81.8797 267.409 84.2971 269.976 86.1344 272.966C87.9716 275.956 89.1891 279.304 89.7108 282.8C90.2324 286.297 90.047 289.866 89.166 293.285C88.2849 296.705 86.7273 299.9 84.5906 302.671C85.7061 304.118 86.6615 305.688 87.4393 307.352L69.6611 316.851L88.6263 310.31C89.4963 312.964 89.9417 315.746 89.9452 318.547C89.9521 324.313 88.0652 329.912 84.5906 334.436C87.4867 338.225 89.2881 342.776 89.7889 347.568C90.2897 352.361 89.4697 357.202 87.4226 361.537C85.3755 365.873 82.1839 369.529 78.2127 372.086C74.2415 374.644 69.6511 376 64.966 376C60.281 376 55.6904 374.644 51.7192 372.086C47.748 369.529 44.5565 365.873 42.5093 361.537C40.4622 357.202 39.6423 352.361 40.1431 347.568C40.6439 342.776 42.4453 338.225 45.3414 334.436C41.8812 329.907 40.0002 324.314 40.0002 318.553C40.0002 312.793 41.8812 307.2 45.3414 302.671Z" fill="#2D9965"/>
<path opacity="0.1" d="M90 318.378C90.0069 324.161 88.118 329.777 84.6395 334.314C87.5388 338.114 89.3421 342.678 89.8435 347.485C90.3448 352.291 89.524 357.146 87.4746 361.495C85.4253 365.843 82.2302 369.51 78.2546 372.075C74.2791 374.64 69.6836 376 64.9934 376C60.3032 376 55.7076 374.64 51.7321 372.075C47.7565 369.51 44.5615 365.843 42.5121 361.495C40.4627 357.146 39.6419 352.291 40.1432 347.485C40.6446 342.678 42.448 338.114 45.3472 334.314C41.9937 329.932 90 315.493 90 318.378Z" fill="black"/>
<path d="M630.097 369.306C637.712 369.306 643.886 368.078 643.886 366.564C643.886 365.049 637.712 363.822 630.097 363.822C622.481 363.822 616.307 365.049 616.307 366.564C616.307 368.078 622.481 369.306 630.097 369.306Z" fill="#4B4B4B"/>
<path d="M630.332 367.576C631.22 367.576 631.939 366.603 631.939 365.402C631.939 364.201 631.22 363.228 630.332 363.228C629.445 363.228 628.726 364.201 628.726 365.402C628.726 366.603 629.445 367.576 630.332 367.576Z" fill="#3F3D56"/>
<path d="M630.332 364.921C631.22 364.921 631.939 363.948 631.939 362.747C631.939 361.547 631.22 360.573 630.332 360.573C629.445 360.573 628.726 361.547 628.726 362.747C628.726 363.948 629.445 364.921 630.332 364.921Z" fill="#3F3D56"/>
<path d="M630.332 362.26C631.22 362.26 631.939 361.287 631.939 360.086C631.939 358.886 631.22 357.912 630.332 357.912C629.445 357.912 628.726 358.886 628.726 360.086C628.726 361.287 629.445 362.26 630.332 362.26Z" fill="#3F3D56"/>
<path d="M630.332 359.605C631.22 359.605 631.939 358.632 631.939 357.431C631.939 356.231 631.22 355.258 630.332 355.258C629.445 355.258 628.726 356.231 628.726 357.431C628.726 358.632 629.445 359.605 630.332 359.605Z" fill="#3F3D56"/>
<path d="M630.332 356.95C631.22 356.95 631.939 355.977 631.939 354.777C631.939 353.576 631.22 352.603 630.332 352.603C629.445 352.603 628.726 353.576 628.726 354.777C628.726 355.977 629.445 356.95 630.332 356.95Z" fill="#3F3D56"/>
<path d="M630.332 354.296C631.22 354.296 631.939 353.322 631.939 352.122C631.939 350.921 631.22 349.948 630.332 349.948C629.445 349.948 628.726 350.921 628.726 352.122C628.726 353.322 629.445 354.296 630.332 354.296Z" fill="#3F3D56"/>
<path d="M630.332 351.635C631.22 351.635 631.939 350.661 631.939 349.461C631.939 348.26 631.22 347.287 630.332 347.287C629.445 347.287 628.726 348.26 628.726 349.461C628.726 350.661 629.445 351.635 630.332 351.635Z" fill="#3F3D56"/>
<path d="M624.322 331.29C624.098 331.003 623.896 330.698 623.718 330.378L627.946 329.659L623.386 329.697C622.919 328.656 622.678 327.521 622.679 326.374C622.679 325.353 622.867 324.341 623.235 323.394L629.36 326.68L623.712 322.388C624.236 321.434 624.946 320.601 625.796 319.944C626.646 319.287 627.619 318.818 628.652 318.569C629.686 318.319 630.759 318.294 631.803 318.494C632.847 318.695 633.839 319.116 634.717 319.733C635.596 320.349 636.341 321.147 636.907 322.076C637.472 323.005 637.846 324.045 638.004 325.131C638.161 326.217 638.1 327.324 637.823 328.384C637.547 329.444 637.061 330.434 636.397 331.29C636.739 331.738 637.032 332.224 637.272 332.739L631.8 335.681L637.635 333.651C638.048 334.908 638.151 336.252 637.935 337.561C637.719 338.87 637.19 340.103 636.397 341.147C637.292 342.32 637.85 343.73 638.006 345.216C638.163 346.702 637.912 348.203 637.281 349.548C636.651 350.893 635.667 352.027 634.442 352.821C633.218 353.615 631.802 354.035 630.356 354.035C628.911 354.035 627.495 353.615 626.27 352.821C625.046 352.027 624.062 350.893 623.432 349.548C622.801 348.203 622.55 346.702 622.706 345.216C622.863 343.73 623.421 342.32 624.316 341.147C623.248 339.746 622.667 338.014 622.667 336.231C622.667 334.447 623.248 332.715 624.316 331.315L624.322 331.29Z" fill="#2D9965"/>
<path opacity="0.1" d="M638.052 336.206C638.053 337.989 637.474 339.72 636.409 341.122C637.304 342.295 637.862 343.705 638.019 345.191C638.175 346.677 637.924 348.178 637.293 349.523C636.663 350.868 635.679 352.002 634.455 352.796C633.23 353.59 631.814 354.011 630.369 354.011C628.923 354.011 627.507 353.59 626.283 352.796C625.058 352.002 624.074 350.868 623.444 349.523C622.813 348.178 622.562 346.677 622.719 345.191C622.875 343.705 623.433 342.295 624.328 341.122C623.289 339.766 638.052 335.313 638.052 336.206Z" fill="black"/>
<defs>
<linearGradient id="paint0_linear" x1="480.783" y1="433.62" x2="480.783" y2="186.471" gradientUnits="userSpaceOnUse">
<stop stop-color="#808080" stop-opacity="0.25"/>
<stop offset="0.54" stop-color="#808080" stop-opacity="0.12"/>
<stop offset="1" stop-color="#808080" stop-opacity="0.1"/>
</linearGradient>
</defs>
</svg>
